<svg width="18" height="18" viewBox="0 0 18 18" fill="none" xmlns="http://www.w3.org/2000/svg">
<path d="M11.6482 6.35203C11.7005 6.40427 11.742 6.46631 11.7703 6.5346C11.7986 6.60288 11.8131 6.67608 11.8131 6.75C11.8131 6.82392 11.7986 6.89712 11.7703 6.96541C11.742 7.03369 11.7005 7.09573 11.6482 7.14797L7.14817 11.648C7.09591 11.7002 7.03386 11.7417 6.96558 11.77C6.8973 11.7983 6.82411 11.8128 6.7502 11.8128C6.67629 11.8128 6.60311 11.7983 6.53482 11.77C6.46654 11.7417 6.40449 11.7002 6.35223 11.648C6.29997 11.5957 6.25851 11.5337 6.23023 11.4654C6.20195 11.3971 6.18739 11.3239 6.18739 11.25C6.18739 11.1761 6.20195 11.1029 6.23023 11.0346C6.25851 10.9663 6.29997 10.9043 6.35223 10.852L10.8522 6.35203C10.9045 6.29973 10.9665 6.25824 11.0348 6.22994C11.1031 6.20163 11.1763 6.18706 11.2502 6.18706C11.3241 6.18706 11.3973 6.20163 11.4656 6.22994C11.5339 6.25824 11.5959 6.29973 11.6482 6.35203ZM15.1596 2.84063C14.7939 2.47495 14.3599 2.18488 13.8821 1.98698C13.4044 1.78908 12.8923 1.68722 12.3752 1.68722C11.8581 1.68722 11.346 1.78908 10.8683 1.98698C10.3905 2.18488 9.95646 2.47495 9.59083 2.84063L7.47723 4.95352C7.37168 5.05907 7.31239 5.20222 7.31239 5.35149C7.31239 5.50075 7.37168 5.64391 7.47723 5.74945C7.58278 5.855 7.72593 5.9143 7.8752 5.9143C8.02447 5.9143 8.16762 5.855 8.27317 5.74945L10.3868 3.64008C10.9161 3.12233 11.6283 2.83424 12.3688 2.83832C13.1092 2.8424 13.8182 3.13832 14.3419 3.66186C14.8655 4.18541 15.1615 4.89433 15.1658 5.63479C15.17 6.37525 14.882 7.08749 14.3643 7.61696L12.25 9.73055C12.1445 9.836 12.0852 9.97907 12.0851 10.1283C12.085 10.2775 12.1442 10.4206 12.2497 10.5261C12.3551 10.6317 12.4982 10.691 12.6474 10.6911C12.7966 10.6911 12.9397 10.6319 13.0453 10.5265L15.1596 8.40938C15.5252 8.04374 15.8153 7.60966 16.0132 7.13191C16.2111 6.65417 16.313 6.14212 16.313 5.625C16.313 5.10789 16.2111 4.59584 16.0132 4.11809C15.8153 3.64035 15.5252 3.20626 15.1596 2.84063ZM9.72723 12.2498L7.61364 14.3634C7.35354 14.6294 7.04326 14.8411 6.70078 14.9863C6.3583 15.1315 5.99042 15.2073 5.61843 15.2094C5.24645 15.2114 4.87775 15.1396 4.53369 14.9982C4.18963 14.8568 3.87704 14.6485 3.61403 14.3855C3.35102 14.1224 3.1428 13.8098 3.00144 13.4657C2.86007 13.1216 2.78837 12.7529 2.79049 12.3809C2.7926 12.0089 2.86849 11.6411 3.01375 11.2986C3.15902 10.9562 3.37078 10.6459 3.63676 10.3859L5.74965 8.27297C5.8552 8.16742 5.9145 8.02427 5.9145 7.875C5.9145 7.72573 5.8552 7.58258 5.74965 7.47703C5.64411 7.37149 5.50095 7.31219 5.35169 7.31219C5.20242 7.31219 5.05926 7.37149 4.95372 7.47703L2.84083 9.59063C2.10236 10.3291 1.6875 11.3307 1.6875 12.375C1.6875 13.4193 2.10236 14.4209 2.84083 15.1594C3.57929 15.8978 4.58086 16.3127 5.6252 16.3127C6.66954 16.3127 7.67111 15.8978 8.40958 15.1594L10.5232 13.0451C10.6286 12.9395 10.6878 12.7964 10.6878 12.6472C10.6877 12.498 10.6284 12.3549 10.5228 12.2495C10.4173 12.144 10.2742 12.0848 10.125 12.0849C9.97575 12.085 9.83269 12.1443 9.72723 12.2498Z" fill="#363738"/>
</svg>
